<svg xmlns="http://www.w3.org/2000/svg" xmlns:xlink="http://www.w3.org/1999/xlink" width="500" zoomAndPan="magnify" viewBox="0 0 375 374.999991" height="500" preserveAspectRatio="xMidYMid meet" version="1.0"><defs><g/><clipPath id="cad6ef43b3"><path d="M 86 72.3125 L 198.757812 72.3125 L 198.757812 121 L 86 121 Z M 86 72.3125 " clip-rule="nonzero"/></clipPath><clipPath id="2a764da317"><path d="M 86 137 L 198.757812 137 L 198.757812 185.5625 L 86 185.5625 Z M 86 137 " clip-rule="nonzero"/></clipPath><clipPath id="169e5c8860"><path d="M 85.507812 123 L 198.757812 123 L 198.757812 135 L 85.507812 135 Z M 85.507812 123 " clip-rule="nonzero"/></clipPath><clipPath id="7141591443"><path d="M 33 246 L 111 246 L 111 324 L 33 324 Z M 33 246 " clip-rule="nonzero"/></clipPath><clipPath id="93114e5580"><path d="M 62.265625 246.695312 L 124.6875 309.117188 L 96.300781 337.5 L 33.878906 275.082031 Z M 62.265625 246.695312 " clip-rule="nonzero"/></clipPath><clipPath id="77f5552f05"><path d="M 103.839844 288.269531 L 62.265625 246.695312 L 33.878906 275.082031 L 75.457031 316.65625 L 110.492188 323.308594 Z M 103.839844 288.269531 " clip-rule="nonzero"/></clipPath><clipPath id="e0a7407095"><path d="M 2 193.191406 L 115 193.191406 L 115 242 L 2 242 Z M 2 193.191406 " clip-rule="nonzero"/></clipPath><clipPath id="a9f9c3be41"><path d="M 2 258 L 115 258 L 115 306.441406 L 2 306.441406 Z M 2 258 " clip-rule="nonzero"/></clipPath><clipPath id="7d6b3f4460"><path d="M 1.847656 244 L 115.097656 244 L 115.097656 255 L 1.847656 255 Z M 1.847656 244 " clip-rule="nonzero"/></clipPath></defs><g fill="#ffc1b2" fill-opacity="0.302"><g transform="translate(11.124328, 302.728469)"><g><path d="M 86.1875 -2.089844 L 84.621094 -3.34375 C 83.996094 -3.65625 83.367188 -4.285156 82.742188 -5.117188 C 82.011719 -5.953125 81.382812 -6.894531 80.757812 -7.835938 C 79.921875 -8.878906 79.1875 -9.925781 78.457031 -11.179688 C 78.039062 -11.804688 77.832031 -12.433594 77.832031 -13.269531 C 77.832031 -14.105469 78.144531 -14.835938 78.667969 -15.460938 L 78.980469 -15.773438 C 82.742188 -20.582031 85.5625 -26.117188 87.546875 -32.175781 C 89.425781 -38.238281 90.472656 -44.714844 90.472656 -51.503906 C 90.472656 -58.191406 89.425781 -64.667969 87.546875 -70.726562 C 85.5625 -76.785156 82.742188 -82.324219 78.980469 -87.128906 C 75.011719 -92.351562 70.308594 -96.324219 65.085938 -99.144531 C 59.757812 -101.964844 54.21875 -103.425781 48.371094 -103.425781 C 42.519531 -103.425781 36.878906 -101.964844 31.550781 -99.144531 C 26.222656 -96.324219 21.625 -92.351562 17.65625 -87.128906 C 13.894531 -82.324219 11.074219 -76.785156 9.195312 -70.726562 C 7.207031 -64.667969 6.269531 -58.191406 6.269531 -51.503906 C 6.269531 -44.714844 7.207031 -38.238281 9.195312 -32.175781 C 11.074219 -26.117188 13.894531 -20.582031 17.65625 -15.773438 C 21.625 -10.550781 26.222656 -6.582031 31.550781 -3.761719 C 36.878906 -0.941406 42.519531 0.417969 48.371094 0.417969 C 51.816406 0.417969 55.265625 -0.105469 58.816406 -1.148438 C 59.652344 -1.460938 60.28125 -1.253906 60.800781 -0.417969 C 61.117188 0.207031 61.636719 0.417969 62.371094 0.417969 L 85.667969 0.417969 C 86.398438 0.3125 86.816406 0 86.921875 -0.625 C 86.921875 -1.148438 86.710938 -1.671875 86.1875 -2.089844 Z M 65.609375 -33.328125 C 65.398438 -33.117188 65.292969 -33.011719 65.085938 -33.011719 C 64.875 -33.011719 64.773438 -33.117188 64.667969 -33.328125 C 63.832031 -34.476562 62.789062 -35.207031 61.535156 -35.519531 C 60.28125 -35.832031 59.027344 -35.625 57.878906 -34.894531 L 48.683594 -29.148438 C 47.429688 -28.3125 46.699219 -27.265625 46.386719 -26.011719 C 46.070312 -24.757812 46.28125 -23.507812 47.117188 -22.355469 L 47.847656 -21.207031 C 47.640625 -20.894531 47.535156 -20.683594 47.535156 -20.683594 C 47.535156 -20.683594 47.429688 -20.476562 47.324219 -20.265625 C 44.503906 -20.476562 41.894531 -21.417969 39.386719 -23.191406 C 36.878906 -24.863281 34.789062 -27.164062 32.910156 -29.984375 C 31.027344 -32.804688 29.566406 -36.042969 28.519531 -39.804688 C 27.476562 -43.460938 26.953125 -47.324219 26.953125 -51.503906 C 26.953125 -55.683594 27.476562 -59.757812 28.625 -63.519531 C 29.773438 -67.28125 31.339844 -70.519531 33.328125 -73.339844 C 35.207031 -76.160156 37.503906 -78.457031 40.117188 -80.128906 C 42.625 -81.800781 45.445312 -82.636719 48.371094 -82.636719 C 51.296875 -82.636719 54.011719 -81.800781 56.625 -80.128906 C 59.128906 -78.457031 61.429688 -76.160156 63.308594 -73.339844 C 65.191406 -70.519531 66.757812 -67.28125 67.90625 -63.519531 C 69.054688 -59.757812 69.683594 -55.683594 69.683594 -51.503906 C 69.683594 -48.160156 69.265625 -44.921875 68.636719 -41.894531 C 67.90625 -38.757812 66.863281 -35.9375 65.609375 -33.328125 Z M 65.609375 -33.328125 "/></g></g></g><g fill="#ffc1b2" fill-opacity="0.302"><g transform="translate(107.863751, 302.728469)"><g><path d="M 89.53125 -103.738281 L 66.445312 -103.738281 C 65.710938 -103.738281 65.191406 -103.425781 64.980469 -102.902344 C 64.667969 -102.277344 64.667969 -101.753906 65.085938 -101.234375 C 66.757812 -99.246094 67.699219 -97.054688 67.699219 -94.652344 L 67.699219 -33.746094 C 67.699219 -30.503906 66.863281 -28 65.398438 -26.328125 C 63.9375 -24.550781 62.265625 -23.296875 60.382812 -22.460938 C 58.503906 -21.625 56.726562 -21.101562 55.054688 -20.894531 C 53.386719 -20.683594 52.339844 -20.683594 51.921875 -20.683594 C 51.503906 -20.683594 50.355469 -20.683594 48.683594 -20.894531 C 47.011719 -21.101562 45.234375 -21.625 43.355469 -22.460938 C 41.476562 -23.296875 39.804688 -24.550781 38.339844 -26.328125 C 36.878906 -28 36.148438 -30.503906 36.148438 -33.746094 L 36.148438 -94.652344 C 36.148438 -97.160156 36.984375 -99.351562 38.65625 -101.234375 C 38.96875 -101.753906 38.96875 -102.277344 38.757812 -102.902344 C 38.445312 -103.425781 37.921875 -103.738281 37.296875 -103.738281 L 14.207031 -103.738281 C 13.476562 -103.738281 12.953125 -103.425781 12.746094 -102.902344 C 12.433594 -102.277344 12.433594 -101.753906 12.851562 -101.234375 C 14.523438 -99.351562 15.355469 -97.160156 15.355469 -94.652344 L 15.355469 -33.746094 C 15.355469 -28.519531 16.402344 -23.714844 18.492188 -19.328125 C 20.582031 -14.9375 23.507812 -11.179688 27.476562 -8.042969 C 30.820312 -5.328125 34.578125 -3.34375 38.757812 -1.984375 C 42.9375 -0.523438 47.324219 0.105469 51.921875 0.105469 C 56.519531 0.105469 60.800781 -0.523438 64.980469 -1.984375 C 69.160156 -3.34375 72.921875 -5.328125 76.265625 -8.042969 C 80.234375 -11.179688 83.160156 -14.9375 85.25 -19.328125 C 87.339844 -23.714844 88.382812 -28.519531 88.382812 -33.746094 L 88.382812 -94.652344 C 88.382812 -96.949219 89.21875 -99.144531 90.890625 -101.234375 C 91.308594 -101.753906 91.308594 -102.277344 90.996094 -102.902344 C 90.679688 -103.425781 90.160156 -103.738281 89.53125 -103.738281 Z M 89.53125 -103.738281 "/></g></g></g><g fill="#ffc1b2" fill-opacity="0.302"><g transform="translate(211.707146, 302.728469)"><g><path d="M 36.148438 -9.195312 L 36.148438 -94.652344 C 36.148438 -97.160156 36.984375 -99.351562 38.65625 -101.234375 C 38.96875 -101.753906 38.96875 -102.277344 38.757812 -102.902344 C 38.445312 -103.53125 37.921875 -103.84375 37.296875 -103.84375 L 14.207031 -103.84375 C 13.476562 -103.84375 12.953125 -103.53125 12.746094 -102.902344 C 12.433594 -102.277344 12.433594 -101.753906 12.851562 -101.234375 C 14.523438 -99.351562 15.460938 -97.160156 15.460938 -94.652344 L 15.460938 -9.195312 C 15.460938 -6.6875 14.523438 -4.492188 12.851562 -2.613281 C 12.433594 -1.984375 12.433594 -1.460938 12.746094 -0.835938 C 12.953125 -0.207031 13.476562 0 14.207031 0 L 37.296875 0 C 37.921875 0 38.445312 -0.207031 38.757812 -0.835938 C 38.96875 -1.460938 38.96875 -1.984375 38.65625 -2.613281 C 37.820312 -3.449219 37.191406 -4.492188 36.773438 -5.640625 C 36.355469 -6.789062 36.148438 -7.941406 36.148438 -9.195312 Z M 36.148438 -9.195312 "/></g></g></g><g fill="#ffc1b2" fill-opacity="0.302"><g transform="translate(263.315435, 302.728469)"><g><path d="M 38.339844 -23.089844 L 72.609375 -94.859375 C 73.023438 -95.695312 73.128906 -96.53125 73.128906 -97.472656 C 73.023438 -98.308594 72.710938 -99.144531 72.292969 -99.875 C 71.875 -100.5 71.25 -101.128906 70.519531 -101.546875 C 69.683594 -101.964844 68.847656 -102.277344 67.90625 -102.277344 L 15.148438 -102.277344 C 12.746094 -102.277344 10.65625 -103.007812 8.984375 -104.679688 C 8.359375 -105.203125 7.835938 -105.308594 7.207031 -105.097656 C 6.582031 -104.785156 6.269531 -104.261719 6.269531 -103.53125 L 6.269531 -80.128906 C 6.269531 -79.398438 6.476562 -78.875 7.105469 -78.667969 C 7.730469 -78.457031 8.253906 -78.5625 8.878906 -78.980469 C 10.761719 -80.652344 12.953125 -81.59375 15.460938 -81.59375 L 39.070312 -81.59375 C 40.011719 -81.59375 40.742188 -81.175781 41.265625 -80.339844 C 41.789062 -79.503906 41.894531 -78.5625 41.476562 -77.726562 L 7.207031 -5.851562 C 6.789062 -5.015625 6.582031 -4.074219 6.6875 -3.238281 C 6.6875 -2.402344 7 -1.566406 7.417969 -0.941406 C 7.835938 -0.207031 8.460938 0.417969 9.296875 0.835938 C 10.027344 1.253906 10.863281 1.460938 11.910156 1.460938 L 62.996094 1.460938 C 65.503906 1.460938 67.699219 2.402344 69.578125 4.074219 C 69.996094 4.597656 70.621094 4.703125 71.25 4.386719 C 71.875 4.179688 72.191406 3.65625 72.191406 3.03125 L 72.191406 -20.683594 C 72.191406 -21.3125 71.875 -21.730469 71.25 -22.042969 C 70.621094 -22.253906 69.996094 -22.148438 69.578125 -21.730469 C 67.699219 -20.058594 65.503906 -19.222656 62.996094 -19.222656 L 40.742188 -19.222656 C 39.699219 -19.222656 38.96875 -19.535156 38.445312 -20.371094 C 37.921875 -21.207031 37.921875 -22.042969 38.339844 -23.089844 Z M 38.339844 -23.089844 "/></g></g></g><g fill="#ffc1b2" fill-opacity="0.502"><g transform="translate(13.889279, 303.902131)"><g><path d="M 86.1875 -2.089844 L 84.621094 -3.34375 C 83.996094 -3.65625 83.367188 -4.285156 82.742188 -5.117188 C 82.011719 -5.953125 81.382812 -6.894531 80.757812 -7.835938 C 79.921875 -8.878906 79.1875 -9.925781 78.457031 -11.179688 C 78.039062 -11.804688 77.832031 -12.433594 77.832031 -13.269531 C 77.832031 -14.105469 78.144531 -14.835938 78.667969 -15.460938 L 78.980469 -15.773438 C 82.742188 -20.582031 85.5625 -26.117188 87.546875 -32.175781 C 89.425781 -38.238281 90.472656 -44.714844 90.472656 -51.503906 C 90.472656 -58.191406 89.425781 -64.667969 87.546875 -70.726562 C 85.5625 -76.785156 82.742188 -82.324219 78.980469 -87.128906 C 75.011719 -92.351562 70.308594 -96.324219 65.085938 -99.144531 C 59.757812 -101.964844 54.21875 -103.425781 48.371094 -103.425781 C 42.519531 -103.425781 36.878906 -101.964844 31.550781 -99.144531 C 26.222656 -96.324219 21.625 -92.351562 17.65625 -87.128906 C 13.894531 -82.324219 11.074219 -76.785156 9.195312 -70.726562 C 7.207031 -64.667969 6.269531 -58.191406 6.269531 -51.503906 C 6.269531 -44.714844 7.207031 -38.238281 9.195312 -32.175781 C 11.074219 -26.117188 13.894531 -20.582031 17.65625 -15.773438 C 21.625 -10.550781 26.222656 -6.582031 31.550781 -3.761719 C 36.878906 -0.941406 42.519531 0.417969 48.371094 0.417969 C 51.816406 0.417969 55.265625 -0.105469 58.816406 -1.148438 C 59.652344 -1.460938 60.28125 -1.253906 60.800781 -0.417969 C 61.117188 0.207031 61.636719 0.417969 62.371094 0.417969 L 85.667969 0.417969 C 86.398438 0.3125 86.816406 0 86.921875 -0.625 C 86.921875 -1.148438 86.710938 -1.671875 86.1875 -2.089844 Z M 65.609375 -33.328125 C 65.398438 -33.117188 65.292969 -33.011719 65.085938 -33.011719 C 64.875 -33.011719 64.773438 -33.117188 64.667969 -33.328125 C 63.832031 -34.476562 62.789062 -35.207031 61.535156 -35.519531 C 60.28125 -35.832031 59.027344 -35.625 57.878906 -34.894531 L 48.683594 -29.148438 C 47.429688 -28.3125 46.699219 -27.265625 46.386719 -26.011719 C 46.070312 -24.757812 46.28125 -23.507812 47.117188 -22.355469 L 47.847656 -21.207031 C 47.640625 -20.894531 47.535156 -20.683594 47.535156 -20.683594 C 47.535156 -20.683594 47.429688 -20.476562 47.324219 -20.265625 C 44.503906 -20.476562 41.894531 -21.417969 39.386719 -23.191406 C 36.878906 -24.863281 34.789062 -27.164062 32.910156 -29.984375 C 31.027344 -32.804688 29.566406 -36.042969 28.519531 -39.804688 C 27.476562 -43.460938 26.953125 -47.324219 26.953125 -51.503906 C 26.953125 -55.683594 27.476562 -59.757812 28.625 -63.519531 C 29.773438 -67.28125 31.339844 -70.519531 33.328125 -73.339844 C 35.207031 -76.160156 37.503906 -78.457031 40.117188 -80.128906 C 42.625 -81.800781 45.445312 -82.636719 48.371094 -82.636719 C 51.296875 -82.636719 54.011719 -81.800781 56.625 -80.128906 C 59.128906 -78.457031 61.429688 -76.160156 63.308594 -73.339844 C 65.191406 -70.519531 66.757812 -67.28125 67.90625 -63.519531 C 69.054688 -59.757812 69.683594 -55.683594 69.683594 -51.503906 C 69.683594 -48.160156 69.265625 -44.921875 68.636719 -41.894531 C 67.90625 -38.757812 66.863281 -35.9375 65.609375 -33.328125 Z M 65.609375 -33.328125 "/></g></g></g><g fill="#ffc1b2" fill-opacity="0.502"><g transform="translate(110.628702, 303.902131)"><g><path d="M 89.53125 -103.738281 L 66.445312 -103.738281 C 65.710938 -103.738281 65.191406 -103.425781 64.980469 -102.902344 C 64.667969 -102.277344 64.667969 -101.753906 65.085938 -101.234375 C 66.757812 -99.246094 67.699219 -97.054688 67.699219 -94.652344 L 67.699219 -33.746094 C 67.699219 -30.503906 66.863281 -28 65.398438 -26.328125 C 63.9375 -24.550781 62.265625 -23.296875 60.382812 -22.460938 C 58.503906 -21.625 56.726562 -21.101562 55.054688 -20.894531 C 53.386719 -20.683594 52.339844 -20.683594 51.921875 -20.683594 C 51.503906 -20.683594 50.355469 -20.683594 48.683594 -20.894531 C 47.011719 -21.101562 45.234375 -21.625 43.355469 -22.460938 C 41.476562 -23.296875 39.804688 -24.550781 38.339844 -26.328125 C 36.878906 -28 36.148438 -30.503906 36.148438 -33.746094 L 36.148438 -94.652344 C 36.148438 -97.160156 36.984375 -99.351562 38.65625 -101.234375 C 38.96875 -101.753906 38.96875 -102.277344 38.757812 -102.902344 C 38.445312 -103.425781 37.921875 -103.738281 37.296875 -103.738281 L 14.207031 -103.738281 C 13.476562 -103.738281 12.953125 -103.425781 12.746094 -102.902344 C 12.433594 -102.277344 12.433594 -101.753906 12.851562 -101.234375 C 14.523438 -99.351562 15.355469 -97.160156 15.355469 -94.652344 L 15.355469 -33.746094 C 15.355469 -28.519531 16.402344 -23.714844 18.492188 -19.328125 C 20.582031 -14.9375 23.507812 -11.179688 27.476562 -8.042969 C 30.820312 -5.328125 34.578125 -3.34375 38.757812 -1.984375 C 42.9375 -0.523438 47.324219 0.105469 51.921875 0.105469 C 56.519531 0.105469 60.800781 -0.523438 64.980469 -1.984375 C 69.160156 -3.34375 72.921875 -5.328125 76.265625 -8.042969 C 80.234375 -11.179688 83.160156 -14.9375 85.25 -19.328125 C 87.339844 -23.714844 88.382812 -28.519531 88.382812 -33.746094 L 88.382812 -94.652344 C 88.382812 -96.949219 89.21875 -99.144531 90.890625 -101.234375 C 91.308594 -101.753906 91.308594 -102.277344 90.996094 -102.902344 C 90.679688 -103.425781 90.160156 -103.738281 89.53125 -103.738281 Z M 89.53125 -103.738281 "/></g></g></g><g fill="#ffc1b2" fill-opacity="0.502"><g transform="translate(214.472097, 303.902131)"><g><path d="M 36.148438 -9.195312 L 36.148438 -94.652344 C 36.148438 -97.160156 36.984375 -99.351562 38.65625 -101.234375 C 38.96875 -101.753906 38.96875 -102.277344 38.757812 -102.902344 C 38.445312 -103.53125 37.921875 -103.84375 37.296875 -103.84375 L 14.207031 -103.84375 C 13.476562 -103.84375 12.953125 -103.53125 12.746094 -102.902344 C 12.433594 -102.277344 12.433594 -101.753906 12.851562 -101.234375 C 14.523438 -99.351562 15.460938 -97.160156 15.460938 -94.652344 L 15.460938 -9.195312 C 15.460938 -6.6875 14.523438 -4.492188 12.851562 -2.613281 C 12.433594 -1.984375 12.433594 -1.460938 12.746094 -0.835938 C 12.953125 -0.207031 13.476562 0 14.207031 0 L 37.296875 0 C 37.921875 0 38.445312 -0.207031 38.757812 -0.835938 C 38.96875 -1.460938 38.96875 -1.984375 38.65625 -2.613281 C 37.820312 -3.449219 37.191406 -4.492188 36.773438 -5.640625 C 36.355469 -6.789062 36.148438 -7.941406 36.148438 -9.195312 Z M 36.148438 -9.195312 "/></g></g></g><g fill="#ffc1b2" fill-opacity="0.502"><g transform="translate(266.080386, 303.902131)"><g><path d="M 38.339844 -23.089844 L 72.609375 -94.859375 C 73.023438 -95.695312 73.128906 -96.53125 73.128906 -97.472656 C 73.023438 -98.308594 72.710938 -99.144531 72.292969 -99.875 C 71.875 -100.5 71.25 -101.128906 70.519531 -101.546875 C 69.683594 -101.964844 68.847656 -102.277344 67.90625 -102.277344 L 15.148438 -102.277344 C 12.746094 -102.277344 10.65625 -103.007812 8.984375 -104.679688 C 8.359375 -105.203125 7.835938 -105.308594 7.207031 -105.097656 C 6.582031 -104.785156 6.269531 -104.261719 6.269531 -103.53125 L 6.269531 -80.128906 C 6.269531 -79.398438 6.476562 -78.875 7.105469 -78.667969 C 7.730469 -78.457031 8.253906 -78.5625 8.878906 -78.980469 C 10.761719 -80.652344 12.953125 -81.59375 15.460938 -81.59375 L 39.070312 -81.59375 C 40.011719 -81.59375 40.742188 -81.175781 41.265625 -80.339844 C 41.789062 -79.503906 41.894531 -78.5625 41.476562 -77.726562 L 7.207031 -5.851562 C 6.789062 -5.015625 6.582031 -4.074219 6.6875 -3.238281 C 6.6875 -2.402344 7 -1.566406 7.417969 -0.941406 C 7.835938 -0.207031 8.460938 0.417969 9.296875 0.835938 C 10.027344 1.253906 10.863281 1.460938 11.910156 1.460938 L 62.996094 1.460938 C 65.503906 1.460938 67.699219 2.402344 69.578125 4.074219 C 69.996094 4.597656 70.621094 4.703125 71.25 4.386719 C 71.875 4.179688 72.191406 3.65625 72.191406 3.03125 L 72.191406 -20.683594 C 72.191406 -21.3125 71.875 -21.730469 71.25 -22.042969 C 70.621094 -22.253906 69.996094 -22.148438 69.578125 -21.730469 C 67.699219 -20.058594 65.503906 -19.222656 62.996094 -19.222656 L 40.742188 -19.222656 C 39.699219 -19.222656 38.96875 -19.535156 38.445312 -20.371094 C 37.921875 -21.207031 37.921875 -22.042969 38.339844 -23.089844 Z M 38.339844 -23.089844 "/></g></g></g><g fill="#ff3131" fill-opacity="1"><g transform="translate(16.65423, 305.075777)"><g><path d="M 86.1875 -2.089844 L 84.621094 -3.34375 C 83.996094 -3.65625 83.367188 -4.285156 82.742188 -5.117188 C 82.011719 -5.953125 81.382812 -6.894531 80.757812 -7.835938 C 79.921875 -8.878906 79.1875 -9.925781 78.457031 -11.179688 C 78.039062 -11.804688 77.832031 -12.433594 77.832031 -13.269531 C 77.832031 -14.105469 78.144531 -14.835938 78.667969 -15.460938 L 78.980469 -15.773438 C 82.742188 -20.582031 85.5625 -26.117188 87.546875 -32.175781 C 89.425781 -38.238281 90.472656 -44.714844 90.472656 -51.503906 C 90.472656 -58.191406 89.425781 -64.667969 87.546875 -70.726562 C 85.5625 -76.785156 82.742188 -82.324219 78.980469 -87.128906 C 75.011719 -92.351562 70.308594 -96.324219 65.085938 -99.144531 C 59.757812 -101.964844 54.21875 -103.425781 48.371094 -103.425781 C 42.519531 -103.425781 36.878906 -101.964844 31.550781 -99.144531 C 26.222656 -96.324219 21.625 -92.351562 17.65625 -87.128906 C 13.894531 -82.324219 11.074219 -76.785156 9.195312 -70.726562 C 7.207031 -64.667969 6.269531 -58.191406 6.269531 -51.503906 C 6.269531 -44.714844 7.207031 -38.238281 9.195312 -32.175781 C 11.074219 -26.117188 13.894531 -20.582031 17.65625 -15.773438 C 21.625 -10.550781 26.222656 -6.582031 31.550781 -3.761719 C 36.878906 -0.941406 42.519531 0.417969 48.371094 0.417969 C 51.816406 0.417969 55.265625 -0.105469 58.816406 -1.148438 C 59.652344 -1.460938 60.28125 -1.253906 60.800781 -0.417969 C 61.117188 0.207031 61.636719 0.417969 62.371094 0.417969 L 85.667969 0.417969 C 86.398438 0.3125 86.816406 0 86.921875 -0.625 C 86.921875 -1.148438 86.710938 -1.671875 86.1875 -2.089844 Z M 65.609375 -33.328125 C 65.398438 -33.117188 65.292969 -33.011719 65.085938 -33.011719 C 64.875 -33.011719 64.773438 -33.117188 64.667969 -33.328125 C 63.832031 -34.476562 62.789062 -35.207031 61.535156 -35.519531 C 60.28125 -35.832031 59.027344 -35.625 57.878906 -34.894531 L 48.683594 -29.148438 C 47.429688 -28.3125 46.699219 -27.265625 46.386719 -26.011719 C 46.070312 -24.757812 46.28125 -23.507812 47.117188 -22.355469 L 47.847656 -21.207031 C 47.640625 -20.894531 47.535156 -20.683594 47.535156 -20.683594 C 47.535156 -20.683594 47.429688 -20.476562 47.324219 -20.265625 C 44.503906 -20.476562 41.894531 -21.417969 39.386719 -23.191406 C 36.878906 -24.863281 34.789062 -27.164062 32.910156 -29.984375 C 31.027344 -32.804688 29.566406 -36.042969 28.519531 -39.804688 C 27.476562 -43.460938 26.953125 -47.324219 26.953125 -51.503906 C 26.953125 -55.683594 27.476562 -59.757812 28.625 -63.519531 C 29.773438 -67.28125 31.339844 -70.519531 33.328125 -73.339844 C 35.207031 -76.160156 37.503906 -78.457031 40.117188 -80.128906 C 42.625 -81.800781 45.445312 -82.636719 48.371094 -82.636719 C 51.296875 -82.636719 54.011719 -81.800781 56.625 -80.128906 C 59.128906 -78.457031 61.429688 -76.160156 63.308594 -73.339844 C 65.191406 -70.519531 66.757812 -67.28125 67.90625 -63.519531 C 69.054688 -59.757812 69.683594 -55.683594 69.683594 -51.503906 C 69.683594 -48.160156 69.265625 -44.921875 68.636719 -41.894531 C 67.90625 -38.757812 66.863281 -35.9375 65.609375 -33.328125 Z M 65.609375 -33.328125 "/></g></g></g><g fill="#ff3131" fill-opacity="1"><g transform="translate(113.393653, 305.075777)"><g><path d="M 89.53125 -103.738281 L 66.445312 -103.738281 C 65.710938 -103.738281 65.191406 -103.425781 64.980469 -102.902344 C 64.667969 -102.277344 64.667969 -101.753906 65.085938 -101.234375 C 66.757812 -99.246094 67.699219 -97.054688 67.699219 -94.652344 L 67.699219 -33.746094 C 67.699219 -30.503906 66.863281 -28 65.398438 -26.328125 C 63.9375 -24.550781 62.265625 -23.296875 60.382812 -22.460938 C 58.503906 -21.625 56.726562 -21.101562 55.054688 -20.894531 C 53.386719 -20.683594 52.339844 -20.683594 51.921875 -20.683594 C 51.503906 -20.683594 50.355469 -20.683594 48.683594 -20.894531 C 47.011719 -21.101562 45.234375 -21.625 43.355469 -22.460938 C 41.476562 -23.296875 39.804688 -24.550781 38.339844 -26.328125 C 36.878906 -28 36.148438 -30.503906 36.148438 -33.746094 L 36.148438 -94.652344 C 36.148438 -97.160156 36.984375 -99.351562 38.65625 -101.234375 C 38.96875 -101.753906 38.96875 -102.277344 38.757812 -102.902344 C 38.445312 -103.425781 37.921875 -103.738281 37.296875 -103.738281 L 14.207031 -103.738281 C 13.476562 -103.738281 12.953125 -103.425781 12.746094 -102.902344 C 12.433594 -102.277344 12.433594 -101.753906 12.851562 -101.234375 C 14.523438 -99.351562 15.355469 -97.160156 15.355469 -94.652344 L 15.355469 -33.746094 C 15.355469 -28.519531 16.402344 -23.714844 18.492188 -19.328125 C 20.582031 -14.9375 23.507812 -11.179688 27.476562 -8.042969 C 30.820312 -5.328125 34.578125 -3.34375 38.757812 -1.984375 C 42.9375 -0.523438 47.324219 0.105469 51.921875 0.105469 C 56.519531 0.105469 60.800781 -0.523438 64.980469 -1.984375 C 69.160156 -3.34375 72.921875 -5.328125 76.265625 -8.042969 C 80.234375 -11.179688 83.160156 -14.9375 85.25 -19.328125 C 87.339844 -23.714844 88.382812 -28.519531 88.382812 -33.746094 L 88.382812 -94.652344 C 88.382812 -96.949219 89.21875 -99.144531 90.890625 -101.234375 C 91.308594 -101.753906 91.308594 -102.277344 90.996094 -102.902344 C 90.679688 -103.425781 90.160156 -103.738281 89.53125 -103.738281 Z M 89.53125 -103.738281 "/></g></g></g><g fill="#ff3131" fill-opacity="1"><g transform="translate(217.237048, 305.075777)"><g><path d="M 36.148438 -9.195312 L 36.148438 -94.652344 C 36.148438 -97.160156 36.984375 -99.351562 38.65625 -101.234375 C 38.96875 -101.753906 38.96875 -102.277344 38.757812 -102.902344 C 38.445312 -103.53125 37.921875 -103.84375 37.296875 -103.84375 L 14.207031 -103.84375 C 13.476562 -103.84375 12.953125 -103.53125 12.746094 -102.902344 C 12.433594 -102.277344 12.433594 -101.753906 12.851562 -101.234375 C 14.523438 -99.351562 15.460938 -97.160156 15.460938 -94.652344 L 15.460938 -9.195312 C 15.460938 -6.6875 14.523438 -4.492188 12.851562 -2.613281 C 12.433594 -1.984375 12.433594 -1.460938 12.746094 -0.835938 C 12.953125 -0.207031 13.476562 0 14.207031 0 L 37.296875 0 C 37.921875 0 38.445312 -0.207031 38.757812 -0.835938 C 38.96875 -1.460938 38.96875 -1.984375 38.65625 -2.613281 C 37.820312 -3.449219 37.191406 -4.492188 36.773438 -5.640625 C 36.355469 -6.789062 36.148438 -7.941406 36.148438 -9.195312 Z M 36.148438 -9.195312 "/></g></g></g><g fill="#ff3131" fill-opacity="1"><g transform="translate(268.845337, 305.075777)"><g><path d="M 38.339844 -23.089844 L 72.609375 -94.859375 C 73.023438 -95.695312 73.128906 -96.53125 73.128906 -97.472656 C 73.023438 -98.308594 72.710938 -99.144531 72.292969 -99.875 C 71.875 -100.5 71.25 -101.128906 70.519531 -101.546875 C 69.683594 -101.964844 68.847656 -102.277344 67.90625 -102.277344 L 15.148438 -102.277344 C 12.746094 -102.277344 10.65625 -103.007812 8.984375 -104.679688 C 8.359375 -105.203125 7.835938 -105.308594 7.207031 -105.097656 C 6.582031 -104.785156 6.269531 -104.261719 6.269531 -103.53125 L 6.269531 -80.128906 C 6.269531 -79.398438 6.476562 -78.875 7.105469 -78.667969 C 7.730469 -78.457031 8.253906 -78.5625 8.878906 -78.980469 C 10.761719 -80.652344 12.953125 -81.59375 15.460938 -81.59375 L 39.070312 -81.59375 C 40.011719 -81.59375 40.742188 -81.175781 41.265625 -80.339844 C 41.789062 -79.503906 41.894531 -78.5625 41.476562 -77.726562 L 7.207031 -5.851562 C 6.789062 -5.015625 6.582031 -4.074219 6.6875 -3.238281 C 6.6875 -2.402344 7 -1.566406 7.417969 -0.941406 C 7.835938 -0.207031 8.460938 0.417969 9.296875 0.835938 C 10.027344 1.253906 10.863281 1.460938 11.910156 1.460938 L 62.996094 1.460938 C 65.503906 1.460938 67.699219 2.402344 69.578125 4.074219 C 69.996094 4.597656 70.621094 4.703125 71.25 4.386719 C 71.875 4.179688 72.191406 3.65625 72.191406 3.03125 L 72.191406 -20.683594 C 72.191406 -21.3125 71.875 -21.730469 71.25 -22.042969 C 70.621094 -22.253906 69.996094 -22.148438 69.578125 -21.730469 C 67.699219 -20.058594 65.503906 -19.222656 62.996094 -19.222656 L 40.742188 -19.222656 C 39.699219 -19.222656 38.96875 -19.535156 38.445312 -20.371094 C 37.921875 -21.207031 37.921875 -22.042969 38.339844 -23.089844 Z M 38.339844 -23.089844 "/></g></g></g><g fill="#ffc1b2" fill-opacity="0.302"><g transform="translate(-4.390822, 177.502345)"><g><path d="M 74.695312 -91.308594 C 71.355469 -95.277344 67.28125 -98.410156 62.683594 -100.605469 C 57.980469 -102.695312 52.863281 -103.84375 47.429688 -103.84375 L 14.105469 -103.84375 C 13.371094 -103.84375 12.851562 -103.53125 12.640625 -102.902344 C 12.328125 -102.277344 12.433594 -101.753906 12.953125 -101.234375 C 14.835938 -99.144531 15.878906 -96.636719 15.878906 -93.816406 L 15.878906 -10.027344 C 15.878906 -7.105469 14.835938 -4.703125 12.953125 -2.613281 C 12.433594 -1.984375 12.328125 -1.460938 12.640625 -0.835938 C 12.851562 -0.207031 13.371094 0 14.105469 0 L 37.714844 0 C 38.339844 0 38.863281 -0.207031 39.070312 -0.835938 C 39.28125 -1.460938 39.28125 -1.984375 38.863281 -2.613281 C 37.296875 -4.285156 36.566406 -6.164062 36.566406 -8.253906 L 36.566406 -23.507812 C 36.566406 -24.550781 36.878906 -25.492188 37.714844 -26.328125 C 38.445312 -27.058594 39.386719 -27.476562 40.535156 -27.476562 L 47.429688 -27.476562 C 52.863281 -27.476562 57.980469 -28.519531 62.683594 -30.609375 C 67.28125 -32.699219 71.355469 -35.832031 74.695312 -39.90625 C 77.519531 -43.355469 79.710938 -47.324219 81.175781 -51.714844 C 82.636719 -56.101562 83.472656 -60.699219 83.472656 -65.503906 C 83.472656 -70.308594 82.636719 -75.011719 81.175781 -79.398438 C 79.710938 -83.785156 77.519531 -87.753906 74.695312 -91.308594 Z M 58.710938 -53.070312 C 56.101562 -49.726562 52.339844 -48.160156 47.429688 -48.160156 L 39.488281 -48.160156 C 38.65625 -48.160156 38.027344 -48.371094 37.402344 -48.996094 C 36.773438 -49.519531 36.566406 -50.144531 36.566406 -50.980469 L 36.566406 -80.234375 C 36.566406 -80.964844 36.773438 -81.59375 37.402344 -82.21875 C 38.027344 -82.84375 38.65625 -83.160156 39.488281 -83.160156 L 47.429688 -83.160156 C 51.191406 -83.160156 54.011719 -82.324219 56.101562 -80.652344 C 58.191406 -78.980469 59.652344 -77.101562 60.699219 -75.011719 C 61.636719 -72.921875 62.265625 -70.9375 62.472656 -69.054688 C 62.683594 -67.175781 62.789062 -65.921875 62.789062 -65.503906 C 62.789062 -62.996094 62.371094 -60.699219 61.742188 -58.609375 C 61.011719 -56.519531 59.964844 -54.636719 58.710938 -53.070312 Z M 58.710938 -53.070312 "/></g></g></g><g fill="#ffc1b2" fill-opacity="0.302"><g transform="translate(87.54297, 177.502345)"><g><path d="M 78.980469 -87.546875 C 75.011719 -92.769531 70.308594 -96.742188 65.085938 -99.5625 C 59.757812 -102.277344 54.21875 -103.738281 48.371094 -103.738281 C 42.519531 -103.738281 36.878906 -102.277344 31.550781 -99.5625 C 26.222656 -96.742188 21.625 -92.769531 17.65625 -87.546875 C 13.894531 -82.636719 11.074219 -77.101562 9.195312 -71.039062 C 7.207031 -64.980469 6.269531 -58.503906 6.269531 -51.816406 C 6.269531 -45.132812 7.207031 -38.65625 9.195312 -32.59375 C 11.074219 -26.429688 13.894531 -21 17.65625 -16.191406 C 21.625 -10.96875 26.222656 -6.894531 31.550781 -4.179688 C 36.878906 -1.359375 42.519531 0 48.371094 0 C 54.21875 0 59.757812 -1.359375 65.085938 -4.179688 C 70.308594 -6.894531 75.011719 -10.96875 78.980469 -16.191406 C 82.742188 -21 85.5625 -26.429688 87.546875 -32.59375 C 89.425781 -38.65625 90.472656 -45.132812 90.472656 -51.816406 C 90.472656 -58.503906 89.425781 -64.980469 87.546875 -71.039062 C 85.5625 -77.101562 82.742188 -82.636719 78.980469 -87.546875 Z M 48.371094 -20.683594 C 45.445312 -20.683594 42.625 -21.519531 40.117188 -23.191406 C 37.503906 -24.863281 35.207031 -27.058594 33.328125 -29.878906 C 31.339844 -32.699219 29.773438 -36.042969 28.625 -39.804688 C 27.476562 -43.566406 26.953125 -47.535156 26.953125 -51.816406 C 26.953125 -55.996094 27.476562 -60.070312 28.625 -63.832031 C 29.773438 -67.59375 31.339844 -70.832031 33.328125 -73.757812 C 35.207031 -76.578125 37.503906 -78.875 40.117188 -80.546875 C 42.625 -82.21875 45.445312 -83.054688 48.371094 -83.054688 C 51.296875 -83.054688 54.011719 -82.21875 56.625 -80.546875 C 59.128906 -78.875 61.429688 -76.578125 63.308594 -73.757812 C 65.191406 -70.832031 66.757812 -67.59375 67.90625 -63.832031 C 69.054688 -60.070312 69.683594 -55.996094 69.683594 -51.816406 C 69.683594 -47.535156 69.054688 -43.566406 67.90625 -39.804688 C 66.757812 -36.042969 65.191406 -32.699219 63.308594 -29.878906 C 61.429688 -27.058594 59.128906 -24.863281 56.625 -23.191406 C 54.011719 -21.519531 51.296875 -20.683594 48.371094 -20.683594 Z M 48.371094 -20.683594 "/></g></g></g><g fill="#ffc1b2" fill-opacity="0.302"><g transform="translate(184.282393, 177.502345)"><g><path d="M 89.425781 -2.925781 L 87.441406 -4.492188 C 85.980469 -5.433594 84.726562 -6.6875 83.679688 -8.359375 L 54.535156 -49.625 C 53.90625 -50.25 53.699219 -51.085938 53.699219 -51.921875 C 53.699219 -52.757812 53.90625 -53.488281 54.535156 -54.21875 L 83.679688 -95.589844 C 84.726562 -96.949219 85.980469 -98.308594 87.546875 -99.5625 L 89.425781 -100.917969 C 90.054688 -101.441406 90.261719 -102.171875 89.949219 -103.007812 C 89.53125 -103.53125 89.007812 -103.84375 88.488281 -103.84375 L 61.324219 -103.84375 C 60.59375 -103.84375 60.070312 -103.53125 59.863281 -102.902344 C 59.546875 -102.277344 59.546875 -101.753906 59.964844 -101.234375 L 60.070312 -101.128906 C 60.699219 -100.292969 60.800781 -99.457031 60.28125 -98.621094 L 39.59375 -69.160156 C 38.96875 -68.429688 38.339844 -68.21875 37.503906 -68.429688 C 36.667969 -68.636719 36.355469 -69.265625 36.355469 -70.203125 L 36.355469 -95.382812 C 36.355469 -97.472656 37.085938 -99.457031 38.65625 -101.128906 C 39.070312 -101.652344 39.175781 -102.277344 38.96875 -102.902344 C 38.65625 -103.53125 38.132812 -103.84375 37.503906 -103.84375 L 14.105469 -103.84375 C 13.371094 -103.84375 12.851562 -103.53125 12.640625 -102.902344 C 12.328125 -102.277344 12.433594 -101.753906 12.953125 -101.234375 C 14.730469 -99.246094 15.671875 -96.949219 15.671875 -94.234375 L 15.671875 -9.089844 C 15.671875 -6.6875 14.835938 -4.597656 13.269531 -2.925781 L 12.953125 -2.613281 C 12.535156 -1.984375 12.535156 -1.460938 12.851562 -0.835938 C 13.058594 -0.207031 13.582031 0 14.3125 0 L 37.714844 0 C 38.339844 0 38.863281 -0.3125 39.070312 -0.941406 C 39.28125 -1.566406 39.28125 -2.089844 38.863281 -2.613281 C 37.191406 -4.386719 36.355469 -6.476562 36.355469 -8.777344 L 36.355469 -33.746094 C 36.355469 -34.578125 36.667969 -35.101562 37.503906 -35.414062 C 38.339844 -35.625 38.96875 -35.414062 39.59375 -34.683594 L 60.28125 -5.328125 C 60.800781 -4.285156 60.699219 -3.449219 60.070312 -2.820312 L 59.964844 -2.613281 C 59.546875 -1.984375 59.546875 -1.460938 59.863281 -0.835938 C 60.070312 -0.207031 60.59375 0 61.324219 0 L 88.488281 0 C 89.113281 0 89.53125 -0.3125 89.949219 -0.941406 C 90.054688 -1.253906 90.054688 -1.566406 90.054688 -1.984375 C 89.949219 -2.402344 89.742188 -2.714844 89.425781 -2.925781 Z M 89.425781 -2.925781 "/></g></g></g><g fill="#ffc1b2" fill-opacity="0.302"><g transform="translate(286.97663, 177.502345)"><g><path d="M 76.054688 -104.574219 C 74.277344 -102.902344 72.191406 -102.171875 69.890625 -102.171875 L 14.207031 -102.171875 C 13.476562 -102.171875 12.953125 -101.859375 12.746094 -101.234375 C 12.433594 -100.605469 12.433594 -100.082031 12.851562 -99.5625 L 13.164062 -99.246094 C 14.835938 -97.367188 15.671875 -95.171875 15.671875 -92.664062 L 15.671875 -7.835938 C 15.671875 -6.582031 15.460938 -5.433594 15.042969 -4.285156 C 14.625 -3.132812 14 -2.089844 13.164062 -1.253906 L 12.851562 -0.941406 C 12.433594 -0.3125 12.433594 0.207031 12.746094 0.835938 C 12.953125 1.460938 13.476562 1.671875 14.207031 1.671875 L 69.890625 1.671875 C 72.191406 1.671875 74.277344 2.507812 76.054688 4.074219 C 76.578125 4.597656 77.203125 4.703125 77.832031 4.386719 C 78.457031 4.179688 78.875 3.65625 78.875 2.820312 L 78.875 -20.476562 C 78.875 -21.101562 78.5625 -21.625 77.933594 -21.9375 C 77.308594 -22.148438 76.683594 -22.042969 76.265625 -21.625 C 74.382812 -19.847656 72.191406 -19.015625 69.683594 -19.015625 L 38.96875 -19.015625 C 38.238281 -19.015625 37.609375 -19.222656 37.085938 -19.746094 C 36.566406 -20.164062 36.355469 -20.789062 36.355469 -21.625 L 36.355469 -37.296875 C 36.355469 -38.027344 36.566406 -38.65625 37.085938 -39.175781 C 37.609375 -39.59375 38.238281 -39.90625 38.96875 -39.90625 L 48.160156 -39.90625 C 50.667969 -39.90625 52.863281 -38.96875 54.742188 -37.296875 C 55.265625 -36.878906 55.789062 -36.878906 56.414062 -37.191406 C 57.042969 -37.503906 57.355469 -38.027344 57.355469 -38.65625 L 57.355469 -61.847656 C 57.355469 -62.472656 57.042969 -62.890625 56.414062 -63.207031 C 55.789062 -63.519531 55.265625 -63.519531 54.742188 -63.207031 C 52.863281 -61.429688 50.667969 -60.59375 48.160156 -60.59375 L 38.96875 -60.59375 C 38.238281 -60.59375 37.609375 -60.800781 37.085938 -61.324219 C 36.566406 -61.742188 36.355469 -62.371094 36.355469 -63.207031 L 36.355469 -78.875 C 36.355469 -79.605469 36.566406 -80.234375 37.085938 -80.757812 C 37.609375 -81.175781 38.238281 -81.488281 38.96875 -81.488281 L 69.683594 -81.488281 C 72.191406 -81.488281 74.382812 -80.546875 76.265625 -78.875 C 76.683594 -78.351562 77.308594 -78.25 77.933594 -78.5625 C 78.5625 -78.769531 78.875 -79.292969 78.875 -80.023438 L 78.875 -103.425781 C 78.875 -104.054688 78.457031 -104.574219 77.832031 -104.890625 C 77.203125 -105.097656 76.578125 -104.992188 76.054688 -104.574219 Z M 76.054688 -104.574219 "/></g></g></g><g fill="#ffc1b2" fill-opacity="0.502"><g transform="translate(-1.625871, 178.675993)"><g><path d="M 74.695312 -91.308594 C 71.355469 -95.277344 67.28125 -98.410156 62.683594 -100.605469 C 57.980469 -102.695312 52.863281 -103.84375 47.429688 -103.84375 L 14.105469 -103.84375 C 13.371094 -103.84375 12.851562 -103.53125 12.640625 -102.902344 C 12.328125 -102.277344 12.433594 -101.753906 12.953125 -101.234375 C 14.835938 -99.144531 15.878906 -96.636719 15.878906 -93.816406 L 15.878906 -10.027344 C 15.878906 -7.105469 14.835938 -4.703125 12.953125 -2.613281 C 12.433594 -1.984375 12.328125 -1.460938 12.640625 -0.835938 C 12.851562 -0.207031 13.371094 0 14.105469 0 L 37.714844 0 C 38.339844 0 38.863281 -0.207031 39.070312 -0.835938 C 39.28125 -1.460938 39.28125 -1.984375 38.863281 -2.613281 C 37.296875 -4.285156 36.566406 -6.164062 36.566406 -8.253906 L 36.566406 -23.507812 C 36.566406 -24.550781 36.878906 -25.492188 37.714844 -26.328125 C 38.445312 -27.058594 39.386719 -27.476562 40.535156 -27.476562 L 47.429688 -27.476562 C 52.863281 -27.476562 57.980469 -28.519531 62.683594 -30.609375 C 67.28125 -32.699219 71.355469 -35.832031 74.695312 -39.90625 C 77.519531 -43.355469 79.710938 -47.324219 81.175781 -51.714844 C 82.636719 -56.101562 83.472656 -60.699219 83.472656 -65.503906 C 83.472656 -70.308594 82.636719 -75.011719 81.175781 -79.398438 C 79.710938 -83.785156 77.519531 -87.753906 74.695312 -91.308594 Z M 58.710938 -53.070312 C 56.101562 -49.726562 52.339844 -48.160156 47.429688 -48.160156 L 39.488281 -48.160156 C 38.65625 -48.160156 38.027344 -48.371094 37.402344 -48.996094 C 36.773438 -49.519531 36.566406 -50.144531 36.566406 -50.980469 L 36.566406 -80.234375 C 36.566406 -80.964844 36.773438 -81.59375 37.402344 -82.21875 C 38.027344 -82.84375 38.65625 -83.160156 39.488281 -83.160156 L 47.429688 -83.160156 C 51.191406 -83.160156 54.011719 -82.324219 56.101562 -80.652344 C 58.191406 -78.980469 59.652344 -77.101562 60.699219 -75.011719 C 61.636719 -72.921875 62.265625 -70.9375 62.472656 -69.054688 C 62.683594 -67.175781 62.789062 -65.921875 62.789062 -65.503906 C 62.789062 -62.996094 62.371094 -60.699219 61.742188 -58.609375 C 61.011719 -56.519531 59.964844 -54.636719 58.710938 -53.070312 Z M 58.710938 -53.070312 "/></g></g></g><g fill="#ffc1b2" fill-opacity="0.502"><g transform="translate(90.307921, 178.675993)"><g><path d="M 78.980469 -87.546875 C 75.011719 -92.769531 70.308594 -96.742188 65.085938 -99.5625 C 59.757812 -102.277344 54.21875 -103.738281 48.371094 -103.738281 C 42.519531 -103.738281 36.878906 -102.277344 31.550781 -99.5625 C 26.222656 -96.742188 21.625 -92.769531 17.65625 -87.546875 C 13.894531 -82.636719 11.074219 -77.101562 9.195312 -71.039062 C 7.207031 -64.980469 6.269531 -58.503906 6.269531 -51.816406 C 6.269531 -45.132812 7.207031 -38.65625 9.195312 -32.59375 C 11.074219 -26.429688 13.894531 -21 17.65625 -16.191406 C 21.625 -10.96875 26.222656 -6.894531 31.550781 -4.179688 C 36.878906 -1.359375 42.519531 0 48.371094 0 C 54.21875 0 59.757812 -1.359375 65.085938 -4.179688 C 70.308594 -6.894531 75.011719 -10.96875 78.980469 -16.191406 C 82.742188 -21 85.5625 -26.429688 87.546875 -32.59375 C 89.425781 -38.65625 90.472656 -45.132812 90.472656 -51.816406 C 90.472656 -58.503906 89.425781 -64.980469 87.546875 -71.039062 C 85.5625 -77.101562 82.742188 -82.636719 78.980469 -87.546875 Z M 48.371094 -20.683594 C 45.445312 -20.683594 42.625 -21.519531 40.117188 -23.191406 C 37.503906 -24.863281 35.207031 -27.058594 33.328125 -29.878906 C 31.339844 -32.699219 29.773438 -36.042969 28.625 -39.804688 C 27.476562 -43.566406 26.953125 -47.535156 26.953125 -51.816406 C 26.953125 -55.996094 27.476562 -60.070312 28.625 -63.832031 C 29.773438 -67.59375 31.339844 -70.832031 33.328125 -73.757812 C 35.207031 -76.578125 37.503906 -78.875 40.117188 -80.546875 C 42.625 -82.21875 45.445312 -83.054688 48.371094 -83.054688 C 51.296875 -83.054688 54.011719 -82.21875 56.625 -80.546875 C 59.128906 -78.875 61.429688 -76.578125 63.308594 -73.757812 C 65.191406 -70.832031 66.757812 -67.59375 67.90625 -63.832031 C 69.054688 -60.070312 69.683594 -55.996094 69.683594 -51.816406 C 69.683594 -47.535156 69.054688 -43.566406 67.90625 -39.804688 C 66.757812 -36.042969 65.191406 -32.699219 63.308594 -29.878906 C 61.429688 -27.058594 59.128906 -24.863281 56.625 -23.191406 C 54.011719 -21.519531 51.296875 -20.683594 48.371094 -20.683594 Z M 48.371094 -20.683594 "/></g></g></g><g fill="#ffc1b2" fill-opacity="0.502"><g transform="translate(187.047344, 178.675993)"><g><path d="M 89.425781 -2.925781 L 87.441406 -4.492188 C 85.980469 -5.433594 84.726562 -6.6875 83.679688 -8.359375 L 54.535156 -49.625 C 53.90625 -50.25 53.699219 -51.085938 53.699219 -51.921875 C 53.699219 -52.757812 53.90625 -53.488281 54.535156 -54.21875 L 83.679688 -95.589844 C 84.726562 -96.949219 85.980469 -98.308594 87.546875 -99.5625 L 89.425781 -100.917969 C 90.054688 -101.441406 90.261719 -102.171875 89.949219 -103.007812 C 89.53125 -103.53125 89.007812 -103.84375 88.488281 -103.84375 L 61.324219 -103.84375 C 60.59375 -103.84375 60.070312 -103.53125 59.863281 -102.902344 C 59.546875 -102.277344 59.546875 -101.753906 59.964844 -101.234375 L 60.070312 -101.128906 C 60.699219 -100.292969 60.800781 -99.457031 60.28125 -98.621094 L 39.59375 -69.160156 C 38.96875 -68.429688 38.339844 -68.21875 37.503906 -68.429688 C 36.667969 -68.636719 36.355469 -69.265625 36.355469 -70.203125 L 36.355469 -95.382812 C 36.355469 -97.472656 37.085938 -99.457031 38.65625 -101.128906 C 39.070312 -101.652344 39.175781 -102.277344 38.96875 -102.902344 C 38.65625 -103.53125 38.132812 -103.84375 37.503906 -103.84375 L 14.105469 -103.84375 C 13.371094 -103.84375 12.851562 -103.53125 12.640625 -102.902344 C 12.328125 -102.277344 12.433594 -101.753906 12.953125 -101.234375 C 14.730469 -99.246094 15.671875 -96.949219 15.671875 -94.234375 L 15.671875 -9.089844 C 15.671875 -6.6875 14.835938 -4.597656 13.269531 -2.925781 L 12.953125 -2.613281 C 12.535156 -1.984375 12.535156 -1.460938 12.851562 -0.835938 C 13.058594 -0.207031 13.582031 0 14.3125 0 L 37.714844 0 C 38.339844 0 38.863281 -0.3125 39.070312 -0.941406 C 39.28125 -1.566406 39.28125 -2.089844 38.863281 -2.613281 C 37.191406 -4.386719 36.355469 -6.476562 36.355469 -8.777344 L 36.355469 -33.746094 C 36.355469 -34.578125 36.667969 -35.101562 37.503906 -35.414062 C 38.339844 -35.625 38.96875 -35.414062 39.59375 -34.683594 L 60.28125 -5.328125 C 60.800781 -4.285156 60.699219 -3.449219 60.070312 -2.820312 L 59.964844 -2.613281 C 59.546875 -1.984375 59.546875 -1.460938 59.863281 -0.835938 C 60.070312 -0.207031 60.59375 0 61.324219 0 L 88.488281 0 C 89.113281 0 89.53125 -0.3125 89.949219 -0.941406 C 90.054688 -1.253906 90.054688 -1.566406 90.054688 -1.984375 C 89.949219 -2.402344 89.742188 -2.714844 89.425781 -2.925781 Z M 89.425781 -2.925781 "/></g></g></g><g fill="#ffc1b2" fill-opacity="0.502"><g transform="translate(289.741581, 178.675993)"><g><path d="M 76.054688 -104.574219 C 74.277344 -102.902344 72.191406 -102.171875 69.890625 -102.171875 L 14.207031 -102.171875 C 13.476562 -102.171875 12.953125 -101.859375 12.746094 -101.234375 C 12.433594 -100.605469 12.433594 -100.082031 12.851562 -99.5625 L 13.164062 -99.246094 C 14.835938 -97.367188 15.671875 -95.171875 15.671875 -92.664062 L 15.671875 -7.835938 C 15.671875 -6.582031 15.460938 -5.433594 15.042969 -4.285156 C 14.625 -3.132812 14 -2.089844 13.164062 -1.253906 L 12.851562 -0.941406 C 12.433594 -0.3125 12.433594 0.207031 12.746094 0.835938 C 12.953125 1.460938 13.476562 1.671875 14.207031 1.671875 L 69.890625 1.671875 C 72.191406 1.671875 74.277344 2.507812 76.054688 4.074219 C 76.578125 4.597656 77.203125 4.703125 77.832031 4.386719 C 78.457031 4.179688 78.875 3.65625 78.875 2.820312 L 78.875 -20.476562 C 78.875 -21.101562 78.5625 -21.625 77.933594 -21.9375 C 77.308594 -22.148438 76.683594 -22.042969 76.265625 -21.625 C 74.382812 -19.847656 72.191406 -19.015625 69.683594 -19.015625 L 38.96875 -19.015625 C 38.238281 -19.015625 37.609375 -19.222656 37.085938 -19.746094 C 36.566406 -20.164062 36.355469 -20.789062 36.355469 -21.625 L 36.355469 -37.296875 C 36.355469 -38.027344 36.566406 -38.65625 37.085938 -39.175781 C 37.609375 -39.59375 38.238281 -39.90625 38.96875 -39.90625 L 48.160156 -39.90625 C 50.667969 -39.90625 52.863281 -38.96875 54.742188 -37.296875 C 55.265625 -36.878906 55.789062 -36.878906 56.414062 -37.191406 C 57.042969 -37.503906 57.355469 -38.027344 57.355469 -38.65625 L 57.355469 -61.847656 C 57.355469 -62.472656 57.042969 -62.890625 56.414062 -63.207031 C 55.789062 -63.519531 55.265625 -63.519531 54.742188 -63.207031 C 52.863281 -61.429688 50.667969 -60.59375 48.160156 -60.59375 L 38.96875 -60.59375 C 38.238281 -60.59375 37.609375 -60.800781 37.085938 -61.324219 C 36.566406 -61.742188 36.355469 -62.371094 36.355469 -63.207031 L 36.355469 -78.875 C 36.355469 -79.605469 36.566406 -80.234375 37.085938 -80.757812 C 37.609375 -81.175781 38.238281 -81.488281 38.96875 -81.488281 L 69.683594 -81.488281 C 72.191406 -81.488281 74.382812 -80.546875 76.265625 -78.875 C 76.683594 -78.351562 77.308594 -78.25 77.933594 -78.5625 C 78.5625 -78.769531 78.875 -79.292969 78.875 -80.023438 L 78.875 -103.425781 C 78.875 -104.054688 78.457031 -104.574219 77.832031 -104.890625 C 77.203125 -105.097656 76.578125 -104.992188 76.054688 -104.574219 Z M 76.054688 -104.574219 "/></g></g></g><g fill="#ff3131" fill-opacity="1"><g transform="translate(1.13908, 179.849648)"><g><path d="M 74.695312 -91.308594 C 71.355469 -95.277344 67.28125 -98.410156 62.683594 -100.605469 C 57.980469 -102.695312 52.863281 -103.84375 47.429688 -103.84375 L 14.105469 -103.84375 C 13.371094 -103.84375 12.851562 -103.53125 12.640625 -102.902344 C 12.328125 -102.277344 12.433594 -101.753906 12.953125 -101.234375 C 14.835938 -99.144531 15.878906 -96.636719 15.878906 -93.816406 L 15.878906 -10.027344 C 15.878906 -7.105469 14.835938 -4.703125 12.953125 -2.613281 C 12.433594 -1.984375 12.328125 -1.460938 12.640625 -0.835938 C 12.851562 -0.207031 13.371094 0 14.105469 0 L 37.714844 0 C 38.339844 0 38.863281 -0.207031 39.070312 -0.835938 C 39.28125 -1.460938 39.28125 -1.984375 38.863281 -2.613281 C 37.296875 -4.285156 36.566406 -6.164062 36.566406 -8.253906 L 36.566406 -23.507812 C 36.566406 -24.550781 36.878906 -25.492188 37.714844 -26.328125 C 38.445312 -27.058594 39.386719 -27.476562 40.535156 -27.476562 L 47.429688 -27.476562 C 52.863281 -27.476562 57.980469 -28.519531 62.683594 -30.609375 C 67.28125 -32.699219 71.355469 -35.832031 74.695312 -39.90625 C 77.519531 -43.355469 79.710938 -47.324219 81.175781 -51.714844 C 82.636719 -56.101562 83.472656 -60.699219 83.472656 -65.503906 C 83.472656 -70.308594 82.636719 -75.011719 81.175781 -79.398438 C 79.710938 -83.785156 77.519531 -87.753906 74.695312 -91.308594 Z M 58.710938 -53.070312 C 56.101562 -49.726562 52.339844 -48.160156 47.429688 -48.160156 L 39.488281 -48.160156 C 38.65625 -48.160156 38.027344 -48.371094 37.402344 -48.996094 C 36.773438 -49.519531 36.566406 -50.144531 36.566406 -50.980469 L 36.566406 -80.234375 C 36.566406 -80.964844 36.773438 -81.59375 37.402344 -82.21875 C 38.027344 -82.84375 38.65625 -83.160156 39.488281 -83.160156 L 47.429688 -83.160156 C 51.191406 -83.160156 54.011719 -82.324219 56.101562 -80.652344 C 58.191406 -78.980469 59.652344 -77.101562 60.699219 -75.011719 C 61.636719 -72.921875 62.265625 -70.9375 62.472656 -69.054688 C 62.683594 -67.175781 62.789062 -65.921875 62.789062 -65.503906 C 62.789062 -62.996094 62.371094 -60.699219 61.742188 -58.609375 C 61.011719 -56.519531 59.964844 -54.636719 58.710938 -53.070312 Z M 58.710938 -53.070312 "/></g></g></g><g fill="#ff3131" fill-opacity="1"><g transform="translate(93.072872, 179.849648)"><g><path d="M 78.980469 -87.546875 C 75.011719 -92.769531 70.308594 -96.742188 65.085938 -99.5625 C 59.757812 -102.277344 54.21875 -103.738281 48.371094 -103.738281 C 42.519531 -103.738281 36.878906 -102.277344 31.550781 -99.5625 C 26.222656 -96.742188 21.625 -92.769531 17.65625 -87.546875 C 13.894531 -82.636719 11.074219 -77.101562 9.195312 -71.039062 C 7.207031 -64.980469 6.269531 -58.503906 6.269531 -51.816406 C 6.269531 -45.132812 7.207031 -38.65625 9.195312 -32.59375 C 11.074219 -26.429688 13.894531 -21 17.65625 -16.191406 C 21.625 -10.96875 26.222656 -6.894531 31.550781 -4.179688 C 36.878906 -1.359375 42.519531 0 48.371094 0 C 54.21875 0 59.757812 -1.359375 65.085938 -4.179688 C 70.308594 -6.894531 75.011719 -10.96875 78.980469 -16.191406 C 82.742188 -21 85.5625 -26.429688 87.546875 -32.59375 C 89.425781 -38.65625 90.472656 -45.132812 90.472656 -51.816406 C 90.472656 -58.503906 89.425781 -64.980469 87.546875 -71.039062 C 85.5625 -77.101562 82.742188 -82.636719 78.980469 -87.546875 Z M 48.371094 -20.683594 C 45.445312 -20.683594 42.625 -21.519531 40.117188 -23.191406 C 37.503906 -24.863281 35.207031 -27.058594 33.328125 -29.878906 C 31.339844 -32.699219 29.773438 -36.042969 28.625 -39.804688 C 27.476562 -43.566406 26.953125 -47.535156 26.953125 -51.816406 C 26.953125 -55.996094 27.476562 -60.070312 28.625 -63.832031 C 29.773438 -67.59375 31.339844 -70.832031 33.328125 -73.757812 C 35.207031 -76.578125 37.503906 -78.875 40.117188 -80.546875 C 42.625 -82.21875 45.445312 -83.054688 48.371094 -83.054688 C 51.296875 -83.054688 54.011719 -82.21875 56.625 -80.546875 C 59.128906 -78.875 61.429688 -76.578125 63.308594 -73.757812 C 65.191406 -70.832031 66.757812 -67.59375 67.90625 -63.832031 C 69.054688 -60.070312 69.683594 -55.996094 69.683594 -51.816406 C 69.683594 -47.535156 69.054688 -43.566406 67.90625 -39.804688 C 66.757812 -36.042969 65.191406 -32.699219 63.308594 -29.878906 C 61.429688 -27.058594 59.128906 -24.863281 56.625 -23.191406 C 54.011719 -21.519531 51.296875 -20.683594 48.371094 -20.683594 Z M 48.371094 -20.683594 "/></g></g></g><g fill="#ff3131" fill-opacity="1"><g transform="translate(189.812295, 179.849648)"><g><path d="M 89.425781 -2.925781 L 87.441406 -4.492188 C 85.980469 -5.433594 84.726562 -6.6875 83.679688 -8.359375 L 54.535156 -49.625 C 53.90625 -50.25 53.699219 -51.085938 53.699219 -51.921875 C 53.699219 -52.757812 53.90625 -53.488281 54.535156 -54.21875 L 83.679688 -95.589844 C 84.726562 -96.949219 85.980469 -98.308594 87.546875 -99.5625 L 89.425781 -100.917969 C 90.054688 -101.441406 90.261719 -102.171875 89.949219 -103.007812 C 89.53125 -103.53125 89.007812 -103.84375 88.488281 -103.84375 L 61.324219 -103.84375 C 60.59375 -103.84375 60.070312 -103.53125 59.863281 -102.902344 C 59.546875 -102.277344 59.546875 -101.753906 59.964844 -101.234375 L 60.070312 -101.128906 C 60.699219 -100.292969 60.800781 -99.457031 60.28125 -98.621094 L 39.59375 -69.160156 C 38.96875 -68.429688 38.339844 -68.21875 37.503906 -68.429688 C 36.667969 -68.636719 36.355469 -69.265625 36.355469 -70.203125 L 36.355469 -95.382812 C 36.355469 -97.472656 37.085938 -99.457031 38.65625 -101.128906 C 39.070312 -101.652344 39.175781 -102.277344 38.96875 -102.902344 C 38.65625 -103.53125 38.132812 -103.84375 37.503906 -103.84375 L 14.105469 -103.84375 C 13.371094 -103.84375 12.851562 -103.53125 12.640625 -102.902344 C 12.328125 -102.277344 12.433594 -101.753906 12.953125 -101.234375 C 14.730469 -99.246094 15.671875 -96.949219 15.671875 -94.234375 L 15.671875 -9.089844 C 15.671875 -6.6875 14.835938 -4.597656 13.269531 -2.925781 L 12.953125 -2.613281 C 12.535156 -1.984375 12.535156 -1.460938 12.851562 -0.835938 C 13.058594 -0.207031 13.582031 0 14.3125 0 L 37.714844 0 C 38.339844 0 38.863281 -0.3125 39.070312 -0.941406 C 39.28125 -1.566406 39.28125 -2.089844 38.863281 -2.613281 C 37.191406 -4.386719 36.355469 -6.476562 36.355469 -8.777344 L 36.355469 -33.746094 C 36.355469 -34.578125 36.667969 -35.101562 37.503906 -35.414062 C 38.339844 -35.625 38.96875 -35.414062 39.59375 -34.683594 L 60.28125 -5.328125 C 60.800781 -4.285156 60.699219 -3.449219 60.070312 -2.820312 L 59.964844 -2.613281 C 59.546875 -1.984375 59.546875 -1.460938 59.863281 -0.835938 C 60.070312 -0.207031 60.59375 0 61.324219 0 L 88.488281 0 C 89.113281 0 89.53125 -0.3125 89.949219 -0.941406 C 90.054688 -1.253906 90.054688 -1.566406 90.054688 -1.984375 C 89.949219 -2.402344 89.742188 -2.714844 89.425781 -2.925781 Z M 89.425781 -2.925781 "/></g></g></g><g fill="#ff3131" fill-opacity="1"><g transform="translate(292.506532, 179.849648)"><g><path d="M 76.054688 -104.574219 C 74.277344 -102.902344 72.191406 -102.171875 69.890625 -102.171875 L 14.207031 -102.171875 C 13.476562 -102.171875 12.953125 -101.859375 12.746094 -101.234375 C 12.433594 -100.605469 12.433594 -100.082031 12.851562 -99.5625 L 13.164062 -99.246094 C 14.835938 -97.367188 15.671875 -95.171875 15.671875 -92.664062 L 15.671875 -7.835938 C 15.671875 -6.582031 15.460938 -5.433594 15.042969 -4.285156 C 14.625 -3.132812 14 -2.089844 13.164062 -1.253906 L 12.851562 -0.941406 C 12.433594 -0.3125 12.433594 0.207031 12.746094 0.835938 C 12.953125 1.460938 13.476562 1.671875 14.207031 1.671875 L 69.890625 1.671875 C 72.191406 1.671875 74.277344 2.507812 76.054688 4.074219 C 76.578125 4.597656 77.203125 4.703125 77.832031 4.386719 C 78.457031 4.179688 78.875 3.65625 78.875 2.820312 L 78.875 -20.476562 C 78.875 -21.101562 78.5625 -21.625 77.933594 -21.9375 C 77.308594 -22.148438 76.683594 -22.042969 76.265625 -21.625 C 74.382812 -19.847656 72.191406 -19.015625 69.683594 -19.015625 L 38.96875 -19.015625 C 38.238281 -19.015625 37.609375 -19.222656 37.085938 -19.746094 C 36.566406 -20.164062 36.355469 -20.789062 36.355469 -21.625 L 36.355469 -37.296875 C 36.355469 -38.027344 36.566406 -38.65625 37.085938 -39.175781 C 37.609375 -39.59375 38.238281 -39.90625 38.96875 -39.90625 L 48.160156 -39.90625 C 50.667969 -39.90625 52.863281 -38.96875 54.742188 -37.296875 C 55.265625 -36.878906 55.789062 -36.878906 56.414062 -37.191406 C 57.042969 -37.503906 57.355469 -38.027344 57.355469 -38.65625 L 57.355469 -61.847656 C 57.355469 -62.472656 57.042969 -62.890625 56.414062 -63.207031 C 55.789062 -63.519531 55.265625 -63.519531 54.742188 -63.207031 C 52.863281 -61.429688 50.667969 -60.59375 48.160156 -60.59375 L 38.96875 -60.59375 C 38.238281 -60.59375 37.609375 -60.800781 37.085938 -61.324219 C 36.566406 -61.742188 36.355469 -62.371094 36.355469 -63.207031 L 36.355469 -78.875 C 36.355469 -79.605469 36.566406 -80.234375 37.085938 -80.757812 C 37.609375 -81.175781 38.238281 -81.488281 38.96875 -81.488281 L 69.683594 -81.488281 C 72.191406 -81.488281 74.382812 -80.546875 76.265625 -78.875 C 76.683594 -78.351562 77.308594 -78.25 77.933594 -78.5625 C 78.5625 -78.769531 78.875 -79.292969 78.875 -80.023438 L 78.875 -103.425781 C 78.875 -104.054688 78.457031 -104.574219 77.832031 -104.890625 C 77.203125 -105.097656 76.578125 -104.992188 76.054688 -104.574219 Z M 76.054688 -104.574219 "/></g></g></g><g clip-path="url(#cad6ef43b3)"><path fill="#f1f2f2" d="M 198.332031 120.246094 L 86.1875 120.246094 C 90.425781 93.09375 113.917969 72.3125 142.261719 72.3125 C 170.605469 72.3125 194.097656 93.09375 198.332031 120.246094 Z M 198.332031 120.246094 " fill-opacity="1" fill-rule="nonzero"/></g><g clip-path="url(#2a764da317)"><path fill="#f1f2f2" d="M 198.332031 137.886719 C 194.097656 165.042969 170.605469 185.820312 142.261719 185.820312 C 113.917969 185.820312 90.425781 165.042969 86.1875 137.886719 Z M 198.332031 137.886719 " fill-opacity="1" fill-rule="nonzero"/></g><g clip-path="url(#169e5c8860)"><path fill="#000000" d="M 199.015625 129.046875 C 199.015625 130.796875 198.78125 132.515625 198.332031 134.195312 L 86.1875 134.195312 C 85.742188 132.515625 85.507812 130.796875 85.507812 129.046875 C 85.507812 127.292969 85.742188 125.574219 86.1875 123.894531 L 198.332031 123.894531 C 198.78125 125.574219 199.015625 127.292969 199.015625 129.046875 Z M 199.015625 129.046875 " fill-opacity="1" fill-rule="nonzero"/></g><g clip-path="url(#7141591443)"><g clip-path="url(#93114e5580)"><g clip-path="url(#77f5552f05)"><path fill="#ff1c1c" d="M 62.265625 246.695312 L 124.6875 309.117188 L 96.300781 337.5 L 33.878906 275.082031 Z M 62.265625 246.695312 " fill-opacity="1" fill-rule="nonzero"/></g></g></g><g clip-path="url(#e0a7407095)"><path fill="#ff1c1c" d="M 114.417969 241.015625 L 2.527344 241.015625 C 6.753906 213.921875 30.191406 193.191406 58.472656 193.191406 C 86.753906 193.191406 110.191406 213.921875 114.417969 241.015625 Z M 114.417969 241.015625 " fill-opacity="1" fill-rule="nonzero"/></g><g clip-path="url(#a9f9c3be41)"><path fill="#f1f2f2" d="M 114.417969 258.617188 C 110.191406 285.710938 86.753906 306.441406 58.472656 306.441406 C 30.195312 306.441406 6.753906 285.710938 2.527344 258.617188 Z M 114.417969 258.617188 " fill-opacity="1" fill-rule="nonzero"/></g><g clip-path="url(#7d6b3f4460)"><path fill="#000000" d="M 115.097656 249.792969 C 115.097656 251.542969 114.867188 253.257812 114.417969 254.933594 L 2.527344 254.933594 C 2.082031 253.257812 1.847656 251.542969 1.847656 249.792969 C 1.847656 248.046875 2.082031 246.332031 2.527344 244.65625 L 114.417969 244.65625 C 114.867188 246.332031 115.097656 248.046875 115.097656 249.792969 Z M 115.097656 249.792969 " fill-opacity="1" fill-rule="nonzero"/></g></svg>