<svg xmlns="http://www.w3.org/2000/svg" xmlns:xlink="http://www.w3.org/1999/xlink" width="500" zoomAndPan="magnify" viewBox="0 0 375 374.999991" height="500" preserveAspectRatio="xMidYMid meet" version="1.0"><defs><g/><clipPath id="1ac9fbc0fe"><path d="M 0 74.773438 L 171 74.773438 L 171 165 L 0 165 Z M 0 74.773438 " clip-rule="nonzero"/></clipPath><clipPath id="e52f99a282"><path d="M 0 197 L 171 197 L 171 286.273438 L 0 286.273438 Z M 0 197 " clip-rule="nonzero"/></clipPath><clipPath id="a6ef763360"><path d="M 0 170 L 171.621094 170 L 171.621094 191 L 0 191 Z M 0 170 " clip-rule="nonzero"/></clipPath><clipPath id="633887ed4a"><path d="M 180 74.773438 L 375 74.773438 L 375 165 L 180 165 Z M 180 74.773438 " clip-rule="nonzero"/></clipPath><clipPath id="62191336f1"><path d="M 180 196 L 375 196 L 375 286.273438 L 180 286.273438 Z M 180 196 " clip-rule="nonzero"/></clipPath><clipPath id="363dfb86ff"><path d="M 179.628906 170 L 375 170 L 375 191 L 179.628906 191 Z M 179.628906 170 " clip-rule="nonzero"/></clipPath><clipPath id="a62318f55b"><path d="M 249 157 L 375 157 L 375 301 L 249 301 Z M 249 157 " clip-rule="nonzero"/></clipPath><clipPath id="26e3fc9c9f"><path d="M 302.28125 157.140625 L 418.6875 273.546875 L 365.75 326.484375 L 249.34375 210.078125 Z M 302.28125 157.140625 " clip-rule="nonzero"/></clipPath><clipPath id="db2b6b8423"><path d="M 379.816406 234.671875 L 302.28125 157.140625 L 249.34375 210.078125 L 326.875 287.613281 L 392.21875 300.015625 Z M 379.816406 234.671875 " clip-rule="nonzero"/></clipPath></defs><g clip-path="url(#1ac9fbc0fe)"><path fill="#f1f2f2" d="M 170.539062 164.167969 L -38.605469 164.167969 C -30.703125 113.523438 13.105469 74.773438 65.96875 74.773438 C 118.828125 74.773438 162.636719 113.523438 170.539062 164.167969 Z M 170.539062 164.167969 " fill-opacity="1" fill-rule="nonzero"/></g><g clip-path="url(#e52f99a282)"><path fill="#f1f2f2" d="M 170.539062 197.066406 C 162.636719 247.710938 118.828125 286.460938 65.96875 286.460938 C 13.105469 286.460938 -30.703125 247.710938 -38.605469 197.066406 Z M 170.539062 197.066406 " fill-opacity="1" fill-rule="nonzero"/></g><g clip-path="url(#a6ef763360)"><path fill="#000000" d="M 171.808594 180.574219 C 171.808594 183.84375 171.375 187.050781 170.539062 190.179688 L -38.605469 190.179688 C -39.441406 187.050781 -39.875 183.84375 -39.875 180.574219 C -39.875 177.308594 -39.441406 174.101562 -38.605469 170.972656 L 170.539062 170.972656 C 171.375 174.101562 171.808594 177.308594 171.808594 180.574219 Z M 171.808594 180.574219 " fill-opacity="1" fill-rule="nonzero"/></g><g fill="#ffc1b2" fill-opacity="0.302"><g transform="translate(-30.085292, 269.407665)"><g><path d="M 139.304688 -170.285156 C 133.070312 -177.6875 125.472656 -183.53125 116.898438 -187.625 C 108.132812 -191.519531 98.585938 -193.664062 88.453125 -193.664062 L 26.300781 -193.664062 C 24.9375 -193.664062 23.964844 -193.078125 23.574219 -191.910156 C 22.992188 -190.742188 23.183594 -189.765625 24.160156 -188.792969 C 27.667969 -184.894531 29.613281 -180.21875 29.613281 -174.960938 L 29.613281 -18.703125 C 29.613281 -13.25 27.667969 -8.765625 24.160156 -4.871094 C 23.183594 -3.703125 22.992188 -2.726562 23.574219 -1.558594 C 23.964844 -0.390625 24.9375 0 26.300781 0 L 70.335938 0 C 71.503906 0 72.476562 -0.390625 72.867188 -1.558594 C 73.257812 -2.726562 73.257812 -3.703125 72.476562 -4.871094 C 69.554688 -7.988281 68.191406 -11.496094 68.191406 -15.390625 L 68.191406 -43.835938 C 68.191406 -45.785156 68.777344 -47.539062 70.335938 -49.097656 C 71.699219 -50.460938 73.453125 -51.242188 75.59375 -51.242188 L 88.453125 -51.242188 C 98.585938 -51.242188 108.132812 -53.1875 116.898438 -57.085938 C 125.472656 -60.984375 133.070312 -66.828125 139.304688 -74.425781 C 144.566406 -80.855469 148.65625 -88.257812 151.386719 -96.441406 C 154.113281 -104.625 155.671875 -113.199219 155.671875 -122.160156 C 155.671875 -131.121094 154.113281 -139.890625 151.386719 -148.074219 C 148.65625 -156.257812 144.566406 -163.660156 139.304688 -170.285156 Z M 109.496094 -98.976562 C 104.625 -92.742188 97.609375 -89.816406 88.453125 -89.816406 L 73.648438 -89.816406 C 72.089844 -89.816406 70.917969 -90.207031 69.75 -91.375 C 68.582031 -92.351562 68.191406 -93.519531 68.191406 -95.078125 L 68.191406 -149.632812 C 68.191406 -150.996094 68.582031 -152.164062 69.75 -153.332031 C 70.917969 -154.503906 72.089844 -155.085938 73.648438 -155.085938 L 88.453125 -155.085938 C 95.46875 -155.085938 100.730469 -153.527344 104.625 -150.410156 C 108.523438 -147.292969 111.25 -143.785156 113.199219 -139.890625 C 114.953125 -135.992188 116.121094 -132.292969 116.511719 -128.785156 C 116.898438 -125.277344 117.09375 -122.941406 117.09375 -122.160156 C 117.09375 -117.484375 116.316406 -113.199219 115.144531 -109.300781 C 113.78125 -105.40625 111.835938 -101.898438 109.496094 -98.976562 Z M 109.496094 -98.976562 "/></g></g></g><g fill="#ffc1b2" fill-opacity="0.502"><g transform="translate(-24.92882, 271.596455)"><g><path d="M 139.304688 -170.285156 C 133.070312 -177.6875 125.472656 -183.53125 116.898438 -187.625 C 108.132812 -191.519531 98.585938 -193.664062 88.453125 -193.664062 L 26.300781 -193.664062 C 24.9375 -193.664062 23.964844 -193.078125 23.574219 -191.910156 C 22.992188 -190.742188 23.183594 -189.765625 24.160156 -188.792969 C 27.667969 -184.894531 29.613281 -180.21875 29.613281 -174.960938 L 29.613281 -18.703125 C 29.613281 -13.25 27.667969 -8.765625 24.160156 -4.871094 C 23.183594 -3.703125 22.992188 -2.726562 23.574219 -1.558594 C 23.964844 -0.390625 24.9375 0 26.300781 0 L 70.335938 0 C 71.503906 0 72.476562 -0.390625 72.867188 -1.558594 C 73.257812 -2.726562 73.257812 -3.703125 72.476562 -4.871094 C 69.554688 -7.988281 68.191406 -11.496094 68.191406 -15.390625 L 68.191406 -43.835938 C 68.191406 -45.785156 68.777344 -47.539062 70.335938 -49.097656 C 71.699219 -50.460938 73.453125 -51.242188 75.59375 -51.242188 L 88.453125 -51.242188 C 98.585938 -51.242188 108.132812 -53.1875 116.898438 -57.085938 C 125.472656 -60.984375 133.070312 -66.828125 139.304688 -74.425781 C 144.566406 -80.855469 148.65625 -88.257812 151.386719 -96.441406 C 154.113281 -104.625 155.671875 -113.199219 155.671875 -122.160156 C 155.671875 -131.121094 154.113281 -139.890625 151.386719 -148.074219 C 148.65625 -156.257812 144.566406 -163.660156 139.304688 -170.285156 Z M 109.496094 -98.976562 C 104.625 -92.742188 97.609375 -89.816406 88.453125 -89.816406 L 73.648438 -89.816406 C 72.089844 -89.816406 70.917969 -90.207031 69.75 -91.375 C 68.582031 -92.351562 68.191406 -93.519531 68.191406 -95.078125 L 68.191406 -149.632812 C 68.191406 -150.996094 68.582031 -152.164062 69.75 -153.332031 C 70.917969 -154.503906 72.089844 -155.085938 73.648438 -155.085938 L 88.453125 -155.085938 C 95.46875 -155.085938 100.730469 -153.527344 104.625 -150.410156 C 108.523438 -147.292969 111.25 -143.785156 113.199219 -139.890625 C 114.953125 -135.992188 116.121094 -132.292969 116.511719 -128.785156 C 116.898438 -125.277344 117.09375 -122.941406 117.09375 -122.160156 C 117.09375 -117.484375 116.316406 -113.199219 115.144531 -109.300781 C 113.78125 -105.40625 111.835938 -101.898438 109.496094 -98.976562 Z M 109.496094 -98.976562 "/></g></g></g><g fill="#ff3131" fill-opacity="1"><g transform="translate(-19.772329, 273.785255)"><g><path d="M 139.304688 -170.285156 C 133.070312 -177.6875 125.472656 -183.53125 116.898438 -187.625 C 108.132812 -191.519531 98.585938 -193.664062 88.453125 -193.664062 L 26.300781 -193.664062 C 24.9375 -193.664062 23.964844 -193.078125 23.574219 -191.910156 C 22.992188 -190.742188 23.183594 -189.765625 24.160156 -188.792969 C 27.667969 -184.894531 29.613281 -180.21875 29.613281 -174.960938 L 29.613281 -18.703125 C 29.613281 -13.25 27.667969 -8.765625 24.160156 -4.871094 C 23.183594 -3.703125 22.992188 -2.726562 23.574219 -1.558594 C 23.964844 -0.390625 24.9375 0 26.300781 0 L 70.335938 0 C 71.503906 0 72.476562 -0.390625 72.867188 -1.558594 C 73.257812 -2.726562 73.257812 -3.703125 72.476562 -4.871094 C 69.554688 -7.988281 68.191406 -11.496094 68.191406 -15.390625 L 68.191406 -43.835938 C 68.191406 -45.785156 68.777344 -47.539062 70.335938 -49.097656 C 71.699219 -50.460938 73.453125 -51.242188 75.59375 -51.242188 L 88.453125 -51.242188 C 98.585938 -51.242188 108.132812 -53.1875 116.898438 -57.085938 C 125.472656 -60.984375 133.070312 -66.828125 139.304688 -74.425781 C 144.566406 -80.855469 148.65625 -88.257812 151.386719 -96.441406 C 154.113281 -104.625 155.671875 -113.199219 155.671875 -122.160156 C 155.671875 -131.121094 154.113281 -139.890625 151.386719 -148.074219 C 148.65625 -156.257812 144.566406 -163.660156 139.304688 -170.285156 Z M 109.496094 -98.976562 C 104.625 -92.742188 97.609375 -89.816406 88.453125 -89.816406 L 73.648438 -89.816406 C 72.089844 -89.816406 70.917969 -90.207031 69.75 -91.375 C 68.582031 -92.351562 68.191406 -93.519531 68.191406 -95.078125 L 68.191406 -149.632812 C 68.191406 -150.996094 68.582031 -152.164062 69.75 -153.332031 C 70.917969 -154.503906 72.089844 -155.085938 73.648438 -155.085938 L 88.453125 -155.085938 C 95.46875 -155.085938 100.730469 -153.527344 104.625 -150.410156 C 108.523438 -147.292969 111.25 -143.785156 113.199219 -139.890625 C 114.953125 -135.992188 116.121094 -132.292969 116.511719 -128.785156 C 116.898438 -125.277344 117.09375 -122.941406 117.09375 -122.160156 C 117.09375 -117.484375 116.316406 -113.199219 115.144531 -109.300781 C 113.78125 -105.40625 111.835938 -101.898438 109.496094 -98.976562 Z M 109.496094 -98.976562 "/></g></g></g><g clip-path="url(#633887ed4a)"><path fill="#ff1c1c" d="M 389.859375 164.089844 L 180.898438 164.089844 C 188.792969 113.492188 232.566406 74.773438 285.378906 74.773438 C 338.195312 74.773438 381.964844 113.492188 389.859375 164.089844 Z M 389.859375 164.089844 " fill-opacity="1" fill-rule="nonzero"/></g><g clip-path="url(#62191336f1)"><path fill="#f1f2f2" d="M 389.859375 196.957031 C 381.964844 247.558594 338.191406 286.273438 285.378906 286.273438 C 232.566406 286.273438 188.792969 247.558594 180.898438 196.957031 Z M 389.859375 196.957031 " fill-opacity="1" fill-rule="nonzero"/></g><g clip-path="url(#363dfb86ff)"><path fill="#000000" d="M 391.128906 180.480469 C 391.128906 183.746094 390.695312 186.949219 389.859375 190.078125 L 180.898438 190.078125 C 180.0625 186.949219 179.628906 183.746094 179.628906 180.480469 C 179.628906 177.21875 180.0625 174.011719 180.898438 170.886719 L 389.859375 170.886719 C 390.695312 174.011719 391.128906 177.21875 391.128906 180.480469 Z M 391.128906 180.480469 " fill-opacity="1" fill-rule="nonzero"/></g><g clip-path="url(#a62318f55b)"><g clip-path="url(#26e3fc9c9f)"><g clip-path="url(#db2b6b8423)"><path fill="#ff1c1c" d="M 302.28125 157.140625 L 418.6875 273.546875 L 365.75 326.484375 L 249.34375 210.078125 Z M 302.28125 157.140625 " fill-opacity="1" fill-rule="nonzero"/></g></g></g></svg>